# xmcd CD database file
# Copyright (C) 1993-1998 Ti Kan
#
# Track frame offsets:
#     150
#     13657
#     28730
#     38397
#     49217
#     63392
#     74780
#     91005
#     100342
#     111165
#     123180
#     136922
#     149687
#     160882
#     172622
#
# Disc length: 2453 seconds
#
# Revision: 0
# Processed by: cddbd v1.4b41PL1 Copyright (c) Steve Scherf et al.
# Submitted via: Clarion 0.9.3
#
DISCID=c809930f
DTITLE=Various Artist - Rhytm And Blues Vol 2
DYEAR=1900
DGENRE=
TTITLE0=Joe Turner - Shake, Rattle And Roll
TTITLE1=Ray Charles - Drown In My Own Tears
TTITLE2=Ruth Brown - Lucky Lips
TTITLE3=The Drifters - Ruby Baby
TTITLE4=La Vern Baker - Tweedlee Dee
TTITLE5=Louis Jordan - O O O Wee
TTITLE6=Tina Turner - Shake A Hand
TTITLE7=Fats Domino - I'm Walkin'
TTITLE8=Earl Bostic - Blue Moon
TTITLE9=Joe Turner - The Chicken And The Hawk
TTITLE10=Ray Charles - A Fool For You
TTITLE11=T-Bone Walker - Hypin' Women Blues
TTITLE12=Dinah Washington - Fat Daddy
TTITLE13=The Cookies - In Paradise
TTITLE14=Ray Charles - This Little Girl Of Mine
EXTD=
EXTT0=
EXTT1=
EXTT2=
EXTT3=
EXTT4=
EXTT5=
EXTT6=
EXTT7=
EXTT8=
EXTT9=
EXTT10=
EXTT11=
EXTT12=
EXTT13=
EXTT14=
PLAYORDER=
